<svg width="3655" height="1436" viewBox="0 0 3655 1436" fill="none" xmlns="http://www.w3.org/2000/svg">
<path d="M65.2709 737.582V1233.65H156.648V306.782L156.643 234.983L646.157 234.982C646.157 234.982 739.204 229.148 822.376 306.782C900.697 379.887 907.224 463.436 907.224 463.436C907.224 463.436 926.805 567.873 874.59 652.727C822.376 737.582 727.628 774.392 678.787 783.273C606.992 796.327 515.617 763.691 482.983 731.055L417.715 796.327L515.617 842.018C665.732 894.238 770.162 848.547 822.376 822.438C997.552 705.644 1005.04 608.201 1011.53 523.695L1011.65 522.182C1011.65 202.345 750.588 137.073 685.317 137.073H234.969H65.2709C65.2709 137.073 65.2678 228.456 65.2709 306.782V737.582Z" fill="white"/>
<path d="M1166.73 303.179H1302.48V770.218H1166.73V303.179ZM1330.99 521.085H1347.28C1361.76 521.085 1372.4 520.632 1379.19 519.728C1386.43 518.37 1392.08 515.655 1396.16 511.582C1400.23 507.961 1402.72 502.757 1403.62 495.968C1404.98 488.727 1405.66 478.093 1405.66 464.063C1405.66 450.033 1404.98 439.625 1403.62 432.836C1402.72 425.595 1400.23 419.939 1396.16 415.866C1392.08 412.246 1386.43 409.982 1379.19 409.077C1371.94 407.72 1361.32 407.041 1347.28 407.041H1330.99V303.179H1387.33C1420.81 303.179 1447.97 306.573 1468.79 313.361C1490.05 319.697 1506.12 329.653 1516.98 343.23C1527.38 355.902 1534.41 371.967 1538.02 391.427C1541.64 410.435 1543.45 434.647 1543.45 464.063C1543.45 492.121 1541.64 515.429 1538.02 533.983C1534.85 552.538 1528.3 568.151 1518.34 580.823C1507.02 595.304 1490.73 606.393 1469.47 614.086C1448.64 621.327 1421.27 624.947 1387.33 624.947H1330.99V521.085ZM1624.59 303.179H1760.35V770.218H1624.59V303.179ZM1816.01 611.37H1788.86V507.508H1811.94C1825.96 507.508 1836.6 507.056 1843.84 506.151C1851.07 504.793 1856.74 502.531 1860.81 499.362C1864.43 496.194 1866.92 491.442 1868.28 485.107C1869.64 478.772 1870.31 469.494 1870.31 457.275C1870.31 445.056 1869.64 435.778 1868.28 429.442C1866.92 422.654 1864.43 417.676 1860.81 414.508C1857.18 411.34 1851.75 409.303 1844.52 408.398C1837.73 407.494 1826.87 407.041 1811.94 407.041H1788.86V303.179H1858.77C1890.9 303.179 1916.92 306.347 1936.84 312.682C1956.74 319.018 1972.13 328.749 1982.99 341.872C1992.94 354.091 1999.51 369.252 2002.68 387.354C2006.29 405.457 2008.11 428.763 2008.11 457.275C2008.11 493.932 2004.71 522.217 1997.93 542.129C1988.42 567.472 1971.68 585.349 1947.7 595.757L2018.29 770.218H1875.74L1816.01 611.37ZM2102.34 303.179H2238.1V770.218H2102.34V303.179ZM2438.39 750.532C2432.51 732.429 2427.3 714.779 2422.78 697.583L2401.06 622.911C2393.81 598.473 2388.16 580.144 2384.09 567.925C2380.46 554.348 2377.52 544.166 2375.27 537.377L2306.03 303.179H2444.5L2571.43 770.218H2444.5L2438.39 750.532ZM2544.96 563.173L2613.52 303.179H2749.28L2680.04 537.377L2654.93 622.911C2646.78 649.159 2639.31 674.049 2632.53 697.583C2628 714.779 2622.79 732.429 2616.91 750.532L2610.8 770.218H2601.3L2544.96 563.173ZM2919.7 616.122L2913.59 602.546L2895.95 567.925L2878.98 531.947C2877.18 528.778 2874.9 524.026 2872.19 517.691L2844.36 459.99L2769.69 303.179H2908.16L3055.46 616.801V770.218H2919.7V616.122ZM3007.27 447.771L3070.39 303.179H3206.15L3153.21 413.15L3130.81 459.311L3088.04 548.239L3071.07 583.538L3007.27 447.771ZM3325.28 303.179H3336.82L3390.44 489.18L3312.38 770.218H3176.62L3325.28 303.179ZM3478.01 687.4H3364.65L3393.16 582.859H3447.46L3367.36 303.179H3491.58L3640.23 770.218H3501.76L3478.01 687.4Z" fill="white"/>
<path d="M639.625 417.745L417.713 639.673L417.716 561.345H306.758V992.145H417.714V802.855L496.035 718L691.839 522.182C737.526 483.018 735.351 459.084 731 450.382C704.892 391.636 659.204 398.164 639.625 417.745Z" fill="white"/>
<path d="M234.964 1318.51C234.964 1383.4 182.366 1436 117.482 1436C52.5986 1436 0 1383.4 0 1318.51C0 1253.62 52.5986 1201.02 117.482 1201.02C182.366 1201.02 234.964 1253.62 234.964 1318.51Z" fill="url(#paint0_linear_104_2)"/>
<path d="M234.964 195.818C234.964 260.707 182.366 313.309 117.482 313.309C52.5986 313.309 0 260.707 0 195.818C0 130.929 52.5986 78.3273 117.482 78.3273C182.366 78.3273 234.964 130.929 234.964 195.818Z" fill="url(#paint1_linear_104_2)"/>
<path d="M443.821 1037.84C443.821 1084.7 405.834 1122.69 358.973 1122.69C312.112 1122.69 274.125 1084.7 274.125 1037.84C274.125 990.972 312.112 952.982 358.973 952.982C405.834 952.982 443.821 990.972 443.821 1037.84Z" fill="url(#paint2_linear_104_2)"/>
<path d="M443.821 502.6C443.821 549.465 405.834 587.455 358.973 587.455C312.112 587.455 274.125 549.465 274.125 502.6C274.125 455.736 312.112 417.745 358.973 417.745C405.834 417.745 443.821 455.736 443.821 502.6Z" fill="url(#paint3_linear_104_2)"/>
<path d="M1223.63 1122.24C1209.5 1122.24 1197.47 1120.58 1187.01 1117.82C1176.54 1115.06 1166.6 1110.64 1156.14 1105.12L1153 1047.69H1158.76L1178.64 1087.45C1192.24 1099.05 1206.37 1105.12 1221.01 1105.12C1233.05 1105.12 1242.99 1101.81 1250.31 1095.73C1257.64 1089.11 1261.3 1080.27 1261.3 1068.67C1261.3 1059.84 1259.21 1052.66 1255.55 1047.69C1251.88 1042.17 1246.13 1037.2 1238.28 1032.78C1230.43 1028.36 1219.97 1022.84 1207.41 1016.77C1192.24 1009.04 1180.21 1000.75 1171.83 991.366C1163.46 981.979 1159.28 969.83 1159.28 954.369C1159.28 945.533 1161.37 937.25 1165.56 928.967C1169.74 920.684 1174.97 913.506 1181.78 907.431C1188.58 901.357 1196.42 896.387 1204.8 892.522C1213.69 888.657 1222.58 887 1231.48 887C1242.47 887 1252.41 888.104 1261.82 890.865C1271.24 893.626 1280.66 896.94 1289.55 901.909L1292.69 957.13H1286.94L1267.06 919.028C1260.78 914.058 1255.02 910.193 1249.27 907.431C1244.03 904.67 1237.76 903.566 1230.43 903.566C1221.01 903.566 1213.69 906.879 1207.41 913.506C1201.66 920.132 1198.52 927.863 1198.52 937.803C1198.52 948.294 1201.66 956.578 1208.46 963.204C1215.26 969.278 1225.72 976.457 1241.42 984.188C1254.5 990.814 1265.49 996.888 1274.38 1002.96C1282.75 1009.04 1289.03 1016.22 1293.21 1023.95C1297.4 1031.68 1299.49 1041.62 1299.49 1053.21C1299.49 1064.26 1297.4 1074.2 1292.69 1082.48C1288.51 1090.76 1282.23 1097.94 1274.9 1104.02C1267.58 1109.54 1259.21 1113.96 1249.79 1117.27C1240.37 1120.03 1231.48 1121.69 1222.06 1121.69L1223.63 1122.24ZM1449.65 1122.24C1433.95 1122.24 1418.78 1119.48 1405.7 1113.4C1392.1 1107.33 1380.59 1099.05 1370.12 1089.11C1360.18 1078.61 1352.34 1065.91 1346.58 1051.56C1341.35 1037.2 1338.21 1021.74 1338.21 1004.62C1338.21 987.501 1340.82 972.039 1346.58 957.682C1352.34 943.325 1360.18 931.176 1370.12 920.684C1380.06 910.193 1392.1 901.909 1405.7 896.387C1419.3 890.313 1433.95 887.552 1449.65 887.552C1465.87 887.552 1480.52 890.313 1494.12 896.387C1507.72 901.909 1519.23 910.193 1529.7 920.684C1539.64 931.176 1547.48 943.325 1552.72 957.682C1558.47 972.039 1561.09 987.501 1561.09 1004.62C1561.09 1021.74 1558.47 1037.2 1552.72 1051.56C1547.48 1065.91 1539.64 1078.06 1529.7 1089.11C1519.76 1099.6 1507.72 1107.88 1494.12 1113.4C1480.52 1118.93 1465.87 1122.24 1449.65 1122.24ZM1455.4 1104.57C1467.44 1104.57 1478.42 1100.7 1487.32 1093.52C1496.74 1086.35 1504.06 1075.85 1509.29 1062.6C1514.52 1049.35 1517.14 1033.33 1517.14 1015.11C1517.14 993.023 1514 973.144 1507.2 956.578C1500.92 940.011 1492.03 927.311 1481.04 918.476C1470.05 909.088 1458.02 904.67 1444.42 904.67C1432.38 904.67 1421.4 908.536 1411.98 915.715C1402.56 922.893 1395.24 932.833 1389.48 946.638C1384.25 959.891 1381.11 975.905 1381.11 994.127C1381.11 1016.22 1384.25 1036.09 1391.05 1052.66C1397.85 1069.23 1406.22 1081.93 1417.73 1091.31C1429.24 1100.7 1441.28 1105.12 1454.88 1105.12L1455.4 1104.57ZM1596.66 1118.93V1113.4L1624.39 1099.05V910.745L1596.66 896.387V890.865H1695.55V896.387L1664.68 910.745V1100.15H1740.02L1765.13 1037.75H1770.36V1118.93H1596.66ZM1915.81 1122.24C1898.02 1122.24 1882.33 1118.93 1868.2 1112.3C1854.6 1105.67 1843.61 1095.73 1835.76 1081.38C1827.91 1067.02 1823.73 1048.24 1823.73 1024.5V910.193L1796 895.835V890.313H1891.74V895.835L1864.54 910.193V1022.29C1864.54 1041.06 1867.15 1055.97 1872.91 1067.57C1878.66 1078.61 1885.99 1086.35 1895.41 1091.31C1904.82 1095.73 1915.81 1098.49 1927.32 1098.49C1936.74 1098.49 1945.63 1096.28 1954 1092.42C1962.37 1088 1969.18 1081.38 1973.88 1071.99C1979.12 1062.6 1981.21 1049.9 1981.21 1034.44V909.64L1949.82 896.387V890.865H2031.43V896.387L2004.23 910.193V1025.05C2004.23 1048.8 2000.57 1067.57 1992.72 1081.93C1984.87 1096.28 1974.41 1106.78 1960.8 1112.85C1947.2 1119.48 1932.03 1122.79 1914.24 1122.79L1915.81 1122.24ZM2108.34 1118.93V1113.4L2142.35 1099.05V909.64H2093.17L2068.58 963.756H2063.35V890.313H2262.68V963.756H2257.45L2232.86 909.64H2183.68V1099.05L2217.17 1113.4V1118.93H2108.34ZM2294.08 1118.93V1113.4L2321.28 1099.05V910.745L2294.08 896.387V890.865H2389.82V896.387L2362.61 910.745V1099.05L2389.82 1113.4V1118.93H2294.08ZM2538.41 1122.24C2522.71 1122.24 2507.54 1119.48 2494.46 1113.4C2480.85 1107.33 2469.34 1099.05 2458.88 1089.11C2448.94 1078.61 2441.09 1065.91 2435.34 1051.56C2430.11 1037.2 2426.97 1021.74 2426.97 1004.62C2426.97 987.501 2429.58 972.039 2435.34 957.682C2441.09 943.325 2448.94 931.176 2458.88 920.684C2468.82 910.193 2480.85 901.909 2494.46 896.387C2508.06 890.313 2522.71 887.552 2538.41 887.552C2554.62 887.552 2569.27 890.313 2582.88 896.387C2596.48 901.909 2607.99 910.193 2618.45 920.684C2628.39 931.176 2636.24 943.325 2641.47 957.682C2647.23 972.039 2649.84 987.501 2649.84 1004.62C2649.84 1021.74 2647.23 1037.2 2641.47 1051.56C2636.24 1065.91 2628.39 1078.06 2618.45 1089.11C2608.51 1099.6 2596.48 1107.88 2582.88 1113.4C2569.27 1118.93 2554.62 1122.24 2538.41 1122.24ZM2544.16 1104.57C2556.19 1104.57 2567.18 1100.7 2576.07 1093.52C2585.49 1086.35 2592.82 1075.85 2598.05 1062.6C2603.28 1049.35 2605.9 1033.33 2605.9 1015.11C2605.9 993.023 2602.76 973.144 2595.96 956.578C2589.68 940.011 2580.78 927.311 2569.8 918.476C2558.81 909.088 2546.78 904.67 2533.17 904.67C2521.14 904.67 2510.15 908.536 2500.74 915.715C2491.32 922.893 2483.99 932.833 2478.24 946.638C2473.01 959.891 2469.87 975.905 2469.87 994.127C2469.87 1016.22 2473.01 1036.09 2479.81 1052.66C2486.61 1069.23 2494.98 1081.93 2506.49 1091.31C2518 1100.7 2530.03 1105.12 2543.64 1105.12L2544.16 1104.57ZM2684.38 1118.93V1113.4L2711.58 1099.05V910.745L2684.9 896.387V890.865H2741.4L2867.49 1048.24V909.64L2831.91 896.387V890.865H2917.19V896.387L2890.51 910.193V1120.58H2873.25L2734.6 948.847V1099.6L2770.18 1113.4V1118.93H2684.38Z" fill="white"/>
<path d="M3050.08 1118.37V1112.85L3077.81 1098.49V910.193L3050.08 895.836V890.313H3148.96V895.836L3118.1 910.193V1099.6H3193.44L3218.55 1037.2H3223.78V1118.37H3050.08ZM3257.79 1118.37V1112.85L3285.52 1098.49V910.193L3257.79 895.836V890.313H3356.67V895.836L3325.8 910.193V1099.6H3401.14L3426.26 1037.2H3431.49V1118.37H3257.79ZM3465.49 1118.37V1112.85L3493.22 1098.49V910.193L3465.49 895.836V890.313H3566.99C3592.63 890.313 3613.56 895.283 3628.73 905.223C3644.42 915.163 3652.27 930.624 3652.27 951.608C3652.27 964.309 3648.09 975.905 3639.72 985.844C3631.87 995.784 3620.36 1002.96 3606.23 1008.48C3592.11 1014.01 3576.41 1016.77 3558.62 1016.77H3532.99V1098.49L3564.9 1112.85V1118.37H3464.45H3465.49ZM3534.03 909.641V999.65H3554.96C3572.22 999.65 3585.83 995.232 3595.77 986.949C3605.71 978.666 3610.42 967.622 3610.42 954.921C3610.42 938.907 3605.19 927.311 3595.25 920.132C3585.3 912.954 3571.18 909.641 3552.87 909.641H3534.03Z" fill="white"/>
<defs>
<linearGradient id="paint0_linear_104_2" x1="117.482" y1="1201.02" x2="117.482" y2="1436" gradientUnits="userSpaceOnUse">
<stop stop-color="#A6A8AC"/>
<stop offset="1" stop-color="white"/>
</linearGradient>
<linearGradient id="paint1_linear_104_2" x1="117.482" y1="78.3273" x2="117.482" y2="313.309" gradientUnits="userSpaceOnUse">
<stop stop-color="#A6A8AC"/>
<stop offset="1" stop-color="white"/>
</linearGradient>
<linearGradient id="paint2_linear_104_2" x1="358.973" y1="952.982" x2="358.973" y2="1122.69" gradientUnits="userSpaceOnUse">
<stop stop-color="#A6A8AC"/>
<stop offset="1" stop-color="white"/>
</linearGradient>
<linearGradient id="paint3_linear_104_2" x1="358.973" y1="417.745" x2="358.973" y2="587.455" gradientUnits="userSpaceOnUse">
<stop stop-color="#A6A8AC"/>
<stop offset="1" stop-color="white"/>
</linearGradient>
</defs>
</svg>
