<svg width="64" height="64" viewBox="0 0 1050 1436" fill="none" xmlns="http://www.w3.org/2000/svg">
  <!-- Main P shape -->
  <path d="M65.2709 737.582V1233.65H156.648V306.782L156.643 234.983L646.157 234.982C646.157 234.982 739.204 229.148 822.376 306.782C900.697 379.887 907.224 463.436 907.224 463.436C907.224 463.436 926.805 567.873 874.59 652.727C822.376 737.582 727.628 774.392 678.787 783.273C606.992 796.327 515.617 763.691 482.983 731.055L417.715 796.327L515.617 842.018C665.732 894.238 770.162 848.547 822.376 822.438C997.552 705.644 1005.04 608.201 1011.53 523.695L1011.65 522.182C1011.65 202.345 750.588 137.073 685.317 137.073H234.969H65.2709C65.2709 137.073 65.2678 228.456 65.2709 306.782V737.582Z" fill="url(#dm_grad0)"/>
  <!-- Arrow/diagonal element -->
  <path d="M639.625 417.746L417.713 639.673L417.716 561.346H306.758V992.146H417.714V802.855L496.035 718L691.839 522.182C737.526 483.018 735.351 459.084 731 450.382C704.892 391.636 659.204 398.164 639.625 417.746Z" fill="url(#dm_grad1)"/>
  <!-- Bottom circle -->
  <path d="M234.964 1318.51C234.964 1383.4 182.366 1436 117.482 1436C52.5986 1436 0 1383.4 0 1318.51C0 1253.62 52.5986 1201.02 117.482 1201.02C182.366 1201.02 234.964 1253.62 234.964 1318.51Z" fill="url(#dm_grad2)"/>
  <!-- Top circle -->
  <path d="M234.964 195.818C234.964 260.707 182.366 313.309 117.482 313.309C52.5986 313.309 0 260.707 0 195.818C0 130.929 52.5986 78.3274 117.482 78.3274C182.366 78.3274 234.964 130.929 234.964 195.818Z" fill="url(#dm_grad3)"/>
  <!-- Bottom right circle -->
  <path d="M443.821 1037.84C443.821 1084.7 405.834 1122.69 358.973 1122.69C312.112 1122.69 274.125 1084.7 274.125 1037.84C274.125 990.972 312.112 952.982 358.973 952.982C405.834 952.982 443.821 990.972 443.821 1037.84Z" fill="url(#dm_grad4)"/>
  <!-- Middle right circle -->
  <path d="M443.821 502.6C443.821 549.464 405.834 587.454 358.973 587.454C312.112 587.454 274.125 549.464 274.125 502.6C274.125 455.735 312.112 417.745 358.973 417.745C405.834 417.745 443.821 455.735 443.821 502.6Z" fill="url(#dm_grad5)"/>
  <defs>
    <linearGradient id="dm_grad0" x1="549" y1="65" x2="549" y2="1487" gradientUnits="userSpaceOnUse">
      <stop stop-color="#2B45AA"/>
      <stop offset="0.8125" stop-color="#151745"/>
    </linearGradient>
    <linearGradient id="dm_grad1" x1="494" y1="397" x2="494" y2="1190" gradientUnits="userSpaceOnUse">
      <stop stop-color="#83A0F2"/>
      <stop offset="0.533654" stop-color="#1F2B80"/>
    </linearGradient>
    <linearGradient id="dm_grad2" x1="117" y1="1201" x2="117" y2="1436" gradientUnits="userSpaceOnUse">
      <stop stop-color="#2563EB"/>
      <stop offset="1" stop-color="#06B6D4"/>
    </linearGradient>
    <linearGradient id="dm_grad3" x1="117" y1="78" x2="117" y2="313" gradientUnits="userSpaceOnUse">
      <stop stop-color="#2563EB"/>
      <stop offset="1" stop-color="#06B6D4"/>
    </linearGradient>
    <linearGradient id="dm_grad4" x1="407" y1="969" x2="322" y2="1123" gradientUnits="userSpaceOnUse">
      <stop offset="0.225962" stop-color="#2563EB"/>
      <stop offset="1" stop-color="#06B6D4"/>
    </linearGradient>
    <linearGradient id="dm_grad5" x1="359" y1="418" x2="359" y2="587" gradientUnits="userSpaceOnUse">
      <stop stop-color="#2563EB"/>
      <stop offset="1" stop-color="#06B6D4"/>
    </linearGradient>
  </defs>
</svg>
