<svg width="3655" height="1436" viewBox="0 0 3655 1436" fill="none" xmlns="http://www.w3.org/2000/svg">
<g clip-path="url(#clip0_70_1707)">
<path d="M65.2709 737.582V1233.65H156.648V306.782L156.643 234.983L646.157 234.982C646.157 234.982 739.204 229.148 822.376 306.782C900.697 379.887 907.224 463.436 907.224 463.436C907.224 463.436 926.805 567.873 874.59 652.727C822.376 737.582 727.628 774.392 678.787 783.273C606.992 796.327 515.617 763.691 482.983 731.055L417.715 796.327L515.617 842.018C665.732 894.238 770.162 848.547 822.376 822.438C997.552 705.644 1005.04 608.201 1011.53 523.695L1011.65 522.182C1011.65 202.345 750.588 137.073 685.317 137.073H234.969H65.2709C65.2709 137.073 65.2678 228.456 65.2709 306.782V737.582Z" fill="url(#paint0_linear_70_1707)"/>
<path d="M1166.73 303.179H1302.48V770.218H1166.73V303.179ZM1330.99 521.085H1347.28C1361.76 521.085 1372.4 520.632 1379.19 519.728C1386.43 518.37 1392.08 515.654 1396.16 511.581C1400.23 507.961 1402.72 502.757 1403.62 495.968C1404.98 488.727 1405.66 478.093 1405.66 464.063C1405.66 450.033 1404.98 439.625 1403.62 432.836C1402.72 425.595 1400.23 419.939 1396.16 415.866C1392.08 412.246 1386.43 409.982 1379.19 409.077C1371.94 407.72 1361.32 407.041 1347.28 407.041H1330.99V303.179H1387.33C1420.81 303.179 1447.97 306.573 1468.79 313.361C1490.05 319.697 1506.12 329.653 1516.98 343.23C1527.38 355.902 1534.41 371.967 1538.02 391.427C1541.64 410.435 1543.45 434.647 1543.45 464.063C1543.45 492.121 1541.64 515.429 1538.02 533.983C1534.85 552.537 1528.3 568.151 1518.34 580.823C1507.02 595.304 1490.73 606.393 1469.47 614.086C1448.64 621.327 1421.27 624.947 1387.33 624.947H1330.99V521.085ZM1624.59 303.179H1760.35V770.218H1624.59V303.179ZM1816.01 611.37H1788.86V507.508H1811.94C1825.96 507.508 1836.6 507.055 1843.84 506.151C1851.07 504.793 1856.74 502.531 1860.81 499.362C1864.43 496.194 1866.92 491.442 1868.28 485.107C1869.64 478.771 1870.31 469.494 1870.31 457.275C1870.31 445.055 1869.64 435.778 1868.28 429.442C1866.92 422.654 1864.43 417.676 1860.81 414.508C1857.18 411.34 1851.75 409.303 1844.52 408.398C1837.73 407.494 1826.87 407.041 1811.94 407.041H1788.86V303.179H1858.77C1890.9 303.179 1916.92 306.347 1936.84 312.682C1956.74 319.018 1972.13 328.749 1982.99 341.872C1992.94 354.091 1999.51 369.252 2002.68 387.354C2006.29 405.457 2008.11 428.763 2008.11 457.275C2008.11 493.932 2004.71 522.217 1997.93 542.129C1988.42 567.472 1971.67 585.349 1947.7 595.757L2018.29 770.218H1875.74L1816.01 611.37ZM2102.34 303.179H2238.1V770.218H2102.34V303.179ZM2438.39 750.532C2432.51 732.429 2427.3 714.779 2422.78 697.583L2401.06 622.911C2393.81 598.473 2388.16 580.144 2384.09 567.925C2380.46 554.348 2377.52 544.166 2375.27 537.377L2306.03 303.179H2444.5L2571.43 770.218H2444.5L2438.39 750.532ZM2544.96 563.173L2613.52 303.179H2749.28L2680.04 537.377L2654.93 622.911C2646.78 649.159 2639.31 674.049 2632.53 697.583C2628 714.779 2622.79 732.429 2616.91 750.532L2610.8 770.218H2601.3L2544.96 563.173ZM2919.7 616.122L2913.59 602.546L2895.95 567.925L2878.98 531.947C2877.18 528.778 2874.9 524.026 2872.19 517.691L2844.36 459.99L2769.69 303.179H2908.16L3055.46 616.801V770.218H2919.7V616.122ZM3007.27 447.771L3070.39 303.179H3206.15L3153.21 413.15L3130.81 459.311L3088.04 548.239L3071.07 583.538L3007.27 447.771ZM3325.28 303.179H3336.82L3390.44 489.18L3312.38 770.218H3176.62L3325.28 303.179ZM3478.01 687.4H3364.65L3393.16 582.859H3447.46L3367.36 303.179H3491.58L3640.23 770.218H3501.76L3478.01 687.4Z" fill="#15124B"/>
<path d="M639.625 417.746L417.713 639.673L417.716 561.346H306.758V992.146H417.714V802.855L496.035 718L691.839 522.182C737.526 483.018 735.351 459.084 731 450.382C704.892 391.636 659.204 398.164 639.625 417.746Z" fill="url(#paint1_linear_70_1707)"/>
<path d="M234.964 1318.51C234.964 1383.4 182.366 1436 117.482 1436C52.5986 1436 0 1383.4 0 1318.51C0 1253.62 52.5986 1201.02 117.482 1201.02C182.366 1201.02 234.964 1253.62 234.964 1318.51Z" fill="url(#paint2_linear_70_1707)"/>
<path d="M234.964 195.818C234.964 260.707 182.366 313.309 117.482 313.309C52.5986 313.309 0 260.707 0 195.818C0 130.929 52.5986 78.3274 117.482 78.3274C182.366 78.3274 234.964 130.929 234.964 195.818Z" fill="url(#paint3_linear_70_1707)"/>
<path d="M443.821 1037.84C443.821 1084.7 405.834 1122.69 358.973 1122.69C312.112 1122.69 274.125 1084.7 274.125 1037.84C274.125 990.972 312.112 952.982 358.973 952.982C405.834 952.982 443.821 990.972 443.821 1037.84Z" fill="url(#paint4_linear_70_1707)"/>
<path d="M443.821 502.6C443.821 549.464 405.834 587.454 358.973 587.454C312.112 587.454 274.125 549.464 274.125 502.6C274.125 455.735 312.112 417.745 358.973 417.745C405.834 417.745 443.821 455.735 443.821 502.6Z" fill="url(#paint5_linear_70_1707)"/>
<path d="M1226.63 1155.24C1212.5 1155.24 1200.47 1153.58 1190.01 1150.82C1179.54 1148.06 1169.6 1143.64 1159.14 1138.12L1156 1080.69H1161.76L1181.64 1120.45C1195.24 1132.05 1209.37 1138.12 1224.01 1138.12C1236.05 1138.12 1245.99 1134.81 1253.31 1128.73C1260.64 1122.11 1264.3 1113.27 1264.3 1101.67C1264.3 1092.84 1262.21 1085.66 1258.55 1080.69C1254.88 1075.17 1249.13 1070.2 1241.28 1065.78C1233.43 1061.36 1222.97 1055.84 1210.41 1049.77C1195.24 1042.04 1183.21 1033.75 1174.83 1024.37C1166.46 1014.98 1162.28 1002.83 1162.28 987.369C1162.28 978.533 1164.37 970.25 1168.56 961.967C1172.74 953.684 1177.97 946.506 1184.78 940.431C1191.58 934.357 1199.42 929.387 1207.8 925.522C1216.69 921.657 1225.58 920 1234.48 920C1245.47 920 1255.41 921.104 1264.82 923.865C1274.24 926.626 1283.66 929.94 1292.55 934.909L1295.69 990.13H1289.94L1270.06 952.028C1263.78 947.058 1258.02 943.193 1252.27 940.431C1247.03 937.67 1240.76 936.566 1233.43 936.566C1224.01 936.566 1216.69 939.879 1210.41 946.506C1204.66 953.132 1201.52 960.863 1201.52 970.803C1201.52 981.294 1204.66 989.578 1211.46 996.204C1218.26 1002.28 1228.72 1009.46 1244.42 1017.19C1257.5 1023.81 1268.49 1029.89 1277.38 1035.96C1285.75 1042.04 1292.03 1049.22 1296.21 1056.95C1300.4 1064.68 1302.49 1074.62 1302.49 1086.21C1302.49 1097.26 1300.4 1107.2 1295.69 1115.48C1291.51 1123.76 1285.23 1130.94 1277.9 1137.02C1270.58 1142.54 1262.21 1146.96 1252.79 1150.27C1243.37 1153.03 1234.48 1154.69 1225.06 1154.69L1226.63 1155.24ZM1452.65 1155.24C1436.95 1155.24 1421.78 1152.48 1408.7 1146.4C1395.1 1140.33 1383.59 1132.05 1373.12 1122.11C1363.18 1111.61 1355.34 1098.91 1349.58 1084.56C1344.35 1070.2 1341.21 1054.74 1341.21 1037.62C1341.21 1020.5 1343.82 1005.04 1349.58 990.682C1355.34 976.325 1363.18 964.176 1373.12 953.684C1383.06 943.193 1395.1 934.909 1408.7 929.387C1422.3 923.313 1436.95 920.552 1452.65 920.552C1468.87 920.552 1483.52 923.313 1497.12 929.387C1510.72 934.909 1522.23 943.193 1532.7 953.684C1542.64 964.176 1550.48 976.325 1555.72 990.682C1561.47 1005.04 1564.09 1020.5 1564.09 1037.62C1564.09 1054.74 1561.47 1070.2 1555.72 1084.56C1550.48 1098.91 1542.64 1111.06 1532.7 1122.11C1522.76 1132.6 1510.72 1140.88 1497.12 1146.4C1483.52 1151.93 1468.87 1155.24 1452.65 1155.24ZM1458.4 1137.57C1470.44 1137.57 1481.42 1133.7 1490.32 1126.52C1499.74 1119.35 1507.06 1108.85 1512.29 1095.6C1517.52 1082.35 1520.14 1066.33 1520.14 1048.11C1520.14 1026.02 1517 1006.14 1510.2 989.578C1503.92 973.011 1495.03 960.311 1484.04 951.476C1473.05 942.088 1461.02 937.67 1447.42 937.67C1435.38 937.67 1424.4 941.536 1414.98 948.715C1405.56 955.893 1398.24 965.833 1392.48 979.638C1387.25 992.891 1384.11 1008.9 1384.11 1027.13C1384.11 1049.22 1387.25 1069.09 1394.05 1085.66C1400.85 1102.23 1409.22 1114.93 1420.73 1124.31C1432.24 1133.7 1444.28 1138.12 1457.88 1138.12L1458.4 1137.57ZM1599.66 1151.93V1146.4L1627.39 1132.05V943.745L1599.66 929.387V923.865H1698.55V929.387L1667.68 943.745V1133.15H1743.02L1768.13 1070.75H1773.36V1151.93H1599.66ZM1918.81 1155.24C1901.02 1155.24 1885.33 1151.93 1871.2 1145.3C1857.6 1138.67 1846.61 1128.73 1838.76 1114.38C1830.91 1100.02 1826.73 1081.24 1826.73 1057.5V943.193L1799 928.835V923.313H1894.74V928.835L1867.54 943.193V1055.29C1867.54 1074.06 1870.15 1088.97 1875.91 1100.57C1881.66 1111.61 1888.99 1119.35 1898.41 1124.31C1907.82 1128.73 1918.81 1131.49 1930.32 1131.49C1939.74 1131.49 1948.63 1129.28 1957 1125.42C1965.37 1121 1972.18 1114.38 1976.88 1104.99C1982.12 1095.6 1984.21 1082.9 1984.21 1067.44V942.64L1952.82 929.387V923.865H2034.43V929.387L2007.23 943.193V1058.05C2007.23 1081.8 2003.57 1100.57 1995.72 1114.93C1987.87 1129.28 1977.41 1139.78 1963.8 1145.85C1950.2 1152.48 1935.03 1155.79 1917.24 1155.79L1918.81 1155.24ZM2111.34 1151.93V1146.4L2145.35 1132.05V942.64H2096.17L2071.58 996.756H2066.35V923.313H2265.68V996.756H2260.45L2235.86 942.64H2186.68V1132.05L2220.17 1146.4V1151.93H2111.34ZM2297.08 1151.93V1146.4L2324.28 1132.05V943.745L2297.08 929.387V923.865H2392.82V929.387L2365.61 943.745V1132.05L2392.82 1146.4V1151.93H2297.08ZM2541.41 1155.24C2525.71 1155.24 2510.54 1152.48 2497.46 1146.4C2483.85 1140.33 2472.34 1132.05 2461.88 1122.11C2451.94 1111.61 2444.09 1098.91 2438.34 1084.56C2433.11 1070.2 2429.97 1054.74 2429.97 1037.62C2429.97 1020.5 2432.58 1005.04 2438.34 990.682C2444.09 976.325 2451.94 964.176 2461.88 953.684C2471.82 943.193 2483.85 934.909 2497.46 929.387C2511.06 923.313 2525.71 920.552 2541.41 920.552C2557.62 920.552 2572.27 923.313 2585.88 929.387C2599.48 934.909 2610.99 943.193 2621.45 953.684C2631.39 964.176 2639.24 976.325 2644.47 990.682C2650.23 1005.04 2652.84 1020.5 2652.84 1037.62C2652.84 1054.74 2650.23 1070.2 2644.47 1084.56C2639.24 1098.91 2631.39 1111.06 2621.45 1122.11C2611.51 1132.6 2599.48 1140.88 2585.88 1146.4C2572.27 1151.93 2557.62 1155.24 2541.41 1155.24ZM2547.16 1137.57C2559.19 1137.57 2570.18 1133.7 2579.07 1126.52C2588.49 1119.35 2595.82 1108.85 2601.05 1095.6C2606.28 1082.35 2608.9 1066.33 2608.9 1048.11C2608.9 1026.02 2605.76 1006.14 2598.96 989.578C2592.68 973.011 2583.78 960.311 2572.8 951.476C2561.81 942.088 2549.78 937.67 2536.17 937.67C2524.14 937.67 2513.15 941.536 2503.74 948.715C2494.32 955.893 2486.99 965.833 2481.24 979.638C2476.01 992.891 2472.87 1008.9 2472.87 1027.13C2472.87 1049.22 2476.01 1069.09 2482.81 1085.66C2489.61 1102.23 2497.98 1114.93 2509.49 1124.31C2521 1133.7 2533.03 1138.12 2546.64 1138.12L2547.16 1137.57ZM2687.38 1151.93V1146.4L2714.58 1132.05V943.745L2687.9 929.387V923.865H2744.4L2870.49 1081.24V942.64L2834.91 929.387V923.865H2920.19V929.387L2893.51 943.193V1153.58H2876.25L2737.6 981.847V1132.6L2773.18 1146.4V1151.93H2687.38Z" fill="#294BB5"/>
<path d="M3053.08 1151.37V1145.85L3080.81 1131.49V943.193L3053.08 928.836V923.313H3151.96V928.836L3121.1 943.193V1132.6H3196.44L3221.55 1070.2H3226.78V1151.37H3053.08ZM3260.79 1151.37V1145.85L3288.52 1131.49V943.193L3260.79 928.836V923.313H3359.67V928.836L3328.8 943.193V1132.6H3404.14L3429.26 1070.2H3434.49V1151.37H3260.79ZM3468.49 1151.37V1145.85L3496.22 1131.49V943.193L3468.49 928.836V923.313H3569.99C3595.63 923.313 3616.56 928.283 3631.73 938.223C3647.42 948.163 3655.27 963.624 3655.27 984.608C3655.27 997.309 3651.09 1008.9 3642.72 1018.84C3634.87 1028.78 3623.36 1035.96 3609.23 1041.48C3595.11 1047.01 3579.41 1049.77 3561.62 1049.77H3535.99V1131.49L3567.9 1145.85V1151.37H3467.45H3468.49ZM3537.03 942.641V1032.65H3557.96C3575.22 1032.65 3588.83 1028.23 3598.77 1019.95C3608.71 1011.67 3613.42 1000.62 3613.42 987.921C3613.42 971.907 3608.19 960.311 3598.25 953.132C3588.3 945.954 3574.18 942.641 3555.87 942.641H3537.03Z" fill="#294BB5"/>
</g>
<defs>
<linearGradient id="paint0_linear_70_1707" x1="549.076" y1="65.1554" x2="549.076" y2="1486.59" gradientUnits="userSpaceOnUse">
<stop stop-color="#2B45AA"/>
<stop offset="0.8125" stop-color="#151745"/>
</linearGradient>
<linearGradient id="paint1_linear_70_1707" x1="493.93" y1="397.102" x2="493.93" y2="1189.95" gradientUnits="userSpaceOnUse">
<stop stop-color="#83A0F2"/>
<stop offset="0.533654" stop-color="#1F2B80"/>
</linearGradient>
<linearGradient id="paint2_linear_70_1707" x1="117.482" y1="1201.02" x2="117.482" y2="1436" gradientUnits="userSpaceOnUse">
<stop stop-color="#2563EB"/>
<stop offset="1" stop-color="#06B6D4"/>
</linearGradient>
<linearGradient id="paint3_linear_70_1707" x1="117.482" y1="78.3274" x2="117.482" y2="313.309" gradientUnits="userSpaceOnUse">
<stop stop-color="#2563EB"/>
<stop offset="1" stop-color="#06B6D4"/>
</linearGradient>
<linearGradient id="paint4_linear_70_1707" x1="406.701" y1="968.893" x2="321.843" y2="1122.69" gradientUnits="userSpaceOnUse">
<stop offset="0.225962" stop-color="#2563EB"/>
<stop offset="1" stop-color="#06B6D4"/>
</linearGradient>
<linearGradient id="paint5_linear_70_1707" x1="358.973" y1="417.745" x2="358.973" y2="587.454" gradientUnits="userSpaceOnUse">
<stop stop-color="#2563EB"/>
<stop offset="1" stop-color="#06B6D4"/>
</linearGradient>
<clipPath id="clip0_70_1707">
<rect width="3655" height="1436" fill="white"/>
</clipPath>
</defs>
</svg>
